<?xml version="1.0" encoding="UTF-8" standalone="no"?>
<svg
   xmlns:dc="http://purl.org/dc/elements/1.1/"
   xmlns:cc="http://creativecommons.org/ns#"
   xmlns:rdf="http://www.w3.org/1999/02/22-rdf-syntax-ns#"
   xmlns:svg="http://www.w3.org/2000/svg"
   xmlns="http://www.w3.org/2000/svg"
   xmlns:sodipodi="http://sodipodi.sourceforge.net/DTD/sodipodi-0.dtd"
   xmlns:inkscape="http://www.inkscape.org/namespaces/inkscape"
   sodipodi:docname="logo.svg"
   inkscape:version="1.0 (4035a4fb49, 2020-05-01)"
   id="svg8"
   version="1.1"
   viewBox="0 0 90.297181 86.367485"
   height="86.367485mm"
   width="90.29718mm">
  <defs
     id="defs2" />
  <sodipodi:namedview
     inkscape:window-maximized="1"
     inkscape:window-y="-9"
     inkscape:window-x="-9"
     inkscape:window-height="1367"
     inkscape:window-width="3440"
     fit-margin-bottom="1"
     fit-margin-right="1"
     fit-margin-left="1"
     lock-margins="true"
     fit-margin-top="1"
     showgrid="false"
     inkscape:document-rotation="0"
     inkscape:current-layer="layer1"
     inkscape:document-units="mm"
     inkscape:cy="218.96122"
     inkscape:cx="-373.34925"
     inkscape:zoom="1.4"
     inkscape:pageshadow="2"
     inkscape:pageopacity="0.0"
     borderopacity="1.0"
     bordercolor="#666666"
     pagecolor="#ffffff"
     id="base" />
  <metadata
     id="metadata5">
    <rdf:RDF>
      <cc:Work
         rdf:about="">
        <dc:format>image/svg+xml</dc:format>
        <dc:type
           rdf:resource="http://purl.org/dc/dcmitype/StillImage" />
        <dc:title></dc:title>
      </cc:Work>
    </rdf:RDF>
  </metadata>
  <g
     transform="translate(-653.5617,-130.97416)"
     id="layer1"
     inkscape:groupmode="layer"
     inkscape:label="Ebene 1">
    <path
       sodipodi:nodetypes="cscsssccssccsccssscscsscscccccsssssscssssccssscssssccssscssssscssccscccssssscsssssscsssccsssscsscsscscssscscc"
       id="path847"
       d="m 733.89747,216.17972 c -4.08244,-0.86767 -7.94274,-2.28316 -12.67526,-4.64773 l -3.15026,-1.57402 1.80844,-0.97882 c 0.99465,-0.53836 1.84305,-1.09364 1.88535,-1.23398 0.0423,-0.14033 -0.60404,-0.66364 -1.4363,-1.1629 -3.22548,-1.93491 -7.72831,-4.92337 -7.72959,-5.12999 -7.9e-4,-0.1193 0.3671,-0.75242 0.81742,-1.40693 4.01554,-5.83638 3.82634,-18.32962 -0.40816,-26.95116 -2.46681,-5.02249 -6.3279,-8.43632 -11.51973,-10.18532 -3.15514,-1.06289 -4.54988,-1.94885 -6.49886,-4.12819 -2.71403,-3.03479 -8.8178,-8.56656 -10.08247,-9.13762 -3.47386,-1.56859 -8.4488,-0.37748 -11.34194,2.71552 -1.27298,1.36091 -1.45329,2.02882 -0.72124,2.67164 0.63682,0.55921 1.31317,0.73531 3.77861,0.98385 2.61057,0.26318 4.76384,1.25597 6.9418,3.20062 1.8816,1.68003 2.78505,3.00329 3.73076,5.46433 0.93432,2.4314 2.77316,5.45348 5.58396,9.17707 2.67915,3.54919 3.30074,4.8235 3.30854,6.78285 0.007,1.67167 -0.38883,2.5158 -2.04898,4.37336 l -1.12876,1.26298 -0.59104,-0.52128 c -10.46199,-9.2271 -21.03617,-20.14999 -26.65477,-27.53379 -0.79911,-1.05017 -1.53367,-1.91338 -1.63236,-1.91823 -0.15072,-0.007 -0.52651,0.89035 -1.43606,3.43075 -0.1762,0.49214 -0.36935,0.24877 -2.41493,-3.04271 -7.55605,-12.15823 -7.62998,-19.70622 -0.1977,-20.18319 3.16189,-0.20292 8.39449,1.18312 13.70271,3.62964 l 1.80167,0.83039 0.97645,-0.7604 c 4.96725,-3.86813 10.89138,-6.52127 17.29815,-7.74702 2.61903,-0.50107 3.57926,-0.55099 8.26966,-0.42991 4.07272,0.10514 5.83277,0.26326 7.56972,0.68004 5.19854,1.24739 10.43584,3.60099 14.61479,6.56777 2.85844,2.0293 7.32567,6.52194 9.363,9.41625 8.97574,12.75127 10.12646,29.37072 2.98023,43.04197 l -1.03114,1.97263 0.48727,0.8055 c 0.26799,0.44303 0.9657,1.58401 1.55046,2.53551 3.76671,6.12903 5.73086,11.9867 5.0632,15.0999 -0.34267,1.59783 -1.50044,3.02546 -3.00953,3.71102 -1.0105,0.45906 -4.31387,0.64036 -5.82311,0.3196 z m 5.21911,-3.7712 c 0.79491,-0.71025 0.85976,-0.89 0.83519,-2.3151 -0.0179,-1.037 -0.28626,-2.20819 -0.81619,-3.56169 -0.85954,-2.1954 -3.68794,-7.117 -4.88334,-8.49735 l -0.74745,-0.8631 -1.10569,1.32291 c -2.01542,2.41137 -5.61346,5.80545 -7.96048,7.50923 -1.27331,0.92433 -2.3151,1.73222 -2.3151,1.79531 0,0.0631 1.8157,0.9976 4.03489,2.07669 5.26468,2.55998 7.42151,3.26531 10.04999,3.28659 1.89724,0.0153 2.10915,-0.0395 2.90818,-0.75349 z M 728.7381,183.44306 c 1.24745,-0.92343 6.40945,-5.59995 6.62419,-6.0012 0.14024,-0.26203 0.25498,-1.00934 0.25498,-1.66068 0,-0.9734 -0.18035,-1.41226 -1.01291,-2.46479 -1.70671,-2.15767 -2.81908,-3.2205 -3.56708,-3.40824 -1.50224,-0.37704 -2.34721,0.0692 -5.79686,3.06144 -3.75764,3.2594 -4.26368,4.07405 -3.66242,5.8959 0.42576,1.29006 3.53952,4.61256 4.60379,4.91241 0.91475,0.25773 1.93665,0.12387 2.55631,-0.33484 z m -7.09483,-10.18708 c 0.64551,-0.24775 9.35463,-7.94163 10.60056,-9.36484 0.80117,-0.91516 0.99549,-2.63063 0.42057,-3.71278 -0.53836,-1.01334 -2.96457,-3.657 -3.70995,-4.04244 -0.97583,-0.50463 -2.31943,-0.46517 -3.16105,0.0928 -1.01085,0.6702 -9.95902,8.7516 -10.42176,9.41225 -0.6068,0.86633 -0.50083,2.83823 0.20344,3.78538 2.60657,3.50552 4.23496,4.53318 6.06819,3.8296 z m -6.78832,-9.55734 c 0.80429,-0.30579 11.13137,-9.5223 11.83089,-10.55859 0.60653,-0.89855 0.58849,-2.60082 -0.0381,-3.59378 -0.27548,-0.43656 -1.20191,-1.53789 -2.05872,-2.44739 -1.52458,-1.61835 -1.58732,-1.65365 -2.93904,-1.65365 h -1.38121 l -3.5044,3.13724 c -1.92742,1.72548 -4.50657,4.03661 -5.73145,5.13584 -2.47521,2.2213 -2.90925,2.83214 -2.92294,4.11359 -0.0119,1.11372 0.28821,1.66641 1.9513,3.59352 2.05577,2.38213 3.14663,2.89943 4.79367,2.27322 z m -49.64302,-9.73469 c 1.37029,-2.72537 3.85615,-6.40676 5.69103,-8.42804 0.81339,-0.89601 1.47889,-1.7449 1.47889,-1.88641 0,-0.33601 -5.43778,-2.76907 -7.76693,-3.4752 -1.07425,-0.32568 -2.54934,-0.5499 -3.61772,-0.5499 -1.54949,0 -1.91746,0.0955 -2.60897,0.67741 -1.46945,1.23646 -1.33593,3.66804 0.40039,7.29176 1.35947,2.83724 4.86288,8.435 5.27913,8.435 0.0584,0 0.57324,-0.92908 1.14418,-2.06462 z m 35.48034,59.56845 c 0,-0.12673 1.89259,-2.18188 4.20577,-4.56701 l 4.20576,-4.3366 1.68121,1.09356 c 0.92467,0.60146 2.84926,1.76788 4.27687,2.59205 1.42761,0.82417 2.49917,1.5849 2.38125,1.69053 -0.3139,0.28115 -3.67462,1.5151 -5.79046,2.12607 -3.18954,0.92101 -10.9604,1.9146 -10.9604,1.4014 z m -28.25632,-12.11864 c -6.54432,-6.91362 -10.37289,-15.01739 -11.44555,-24.2263 -0.57329,-4.92173 0.0947,-12.26914 1.48799,-16.36584 0.0772,-0.22711 0.54348,0.22535 1.22687,1.19062 1.83156,2.58702 5.79927,7.46426 8.80424,10.82245 3.325,3.71584 11.13261,11.52595 14.6089,14.61359 l 2.43343,2.16137 -7.14814,6.95581 c -3.93148,3.8257 -7.30052,6.99085 -7.48676,7.03368 -0.18625,0.0428 -1.30268,-0.9406 -2.48098,-2.18538 z"
       style="fill:#000000;stroke-width:0.264583" />
  </g>
</svg>
